Coordinates
version=1
nRows=17
nColumns=33
inDegrees=yes

Units are S.I. units (second, meters, Newtons, ...)
Angles are in degrees.

endheader
time	ground_thorax_rot_x	ground_thorax_rot_y	ground_thorax_rot_z	ground_thorax_tx	ground_thorax_ty	ground_thorax_tz	clav_prot_r	clav_elev_r	scapula_abduction_r	scapula_elevation_r	scapula_upward_rot_r	scapula_winging_r	shoulder_elv_r	plane_of_elev_r	axial_rot_r	elbow_flexion_r	pro_sup_r	wrist_flex_r	wrist_dev_r	clav_prot_l	clav_elev_l	scapula_abduction_l	scapula_elevation_l	scapula_upward_rot_l	scapula_winging_l	shoulder_elv_l	plane_of_elev_l	axial_rot_l	elbow_flexion_l	pro_sup_l	wrist_flex_l	wrist_dev_l	
2.7500	-40.809600	-9.666871	11.928985	-117.702097	781.037660	5.999203	6.374411	-45.000000	39.824297	-45.000000	-39.031492	-2968.661725	-1548.850416	143.640537	180.000000	727.877863	49.652150	22.989247	14.787211	19.490250	41.772847	-43.061118	-44.718653	-36.427298	4039.190271	-2812.245719	26.316299	-26.683651	728.119187	17.188654	9.018094	-18.534547	
2.7600	-40.805101	-9.766365	12.205673	-120.061789	782.367426	5.895650	6.449010	-45.000000	39.612610	-45.000000	-39.800533	-2968.828571	-1548.566253	143.500949	180.000000	728.037401	49.509210	23.052166	14.757724	19.474331	41.719251	-42.903585	-44.878299	-36.838446	4039.232467	-2812.026104	26.366669	-26.419353	728.212993	16.656331	8.984889	-18.571628	
2.7700	-40.779442	-9.811619	12.427282	-122.483696	783.778080	5.797567	6.513746	-45.000000	39.444590	-45.000000	-40.444039	-2969.023998	-1548.275674	143.368383	180.000000	728.186035	49.365157	23.109513	14.716652	19.421317	41.623658	-42.770538	-44.964545	-37.158018	4039.343198	-2811.808061	26.405508	-26.239807	728.304770	16.085056	8.964181	-18.610457	
2.7800	-40.739820	-9.800712	12.584533	-124.967345	785.270958	5.705500	6.579304	-45.000000	39.341097	-45.000000	-40.965592	-2969.246633	-1547.980949	143.250968	180.000000	728.342873	49.221036	23.170946	14.671390	19.345948	41.535331	-42.665581	-45.000000	-37.379857	4039.504847	-2811.601496	26.413721	-26.140650	728.405053	15.476489	8.935621	-18.651012	
2.7900	-40.689096	-9.746099	12.697507	-127.511838	786.847057	5.619640	6.653786	-45.000000	39.283786	-45.000000	-41.395514	-2969.496387	-1547.687812	143.142429	180.000000	728.501965	49.079590	23.233701	14.620011	19.260149	41.439780	-42.580053	-45.000000	-37.542224	4039.703232	-2811.400784	26.407235	-26.096720	728.509661	14.827307	8.900203	-18.691298	
2.8000	-40.643310	-9.645110	12.756838	-130.115756	788.506752	5.539976	6.725762	-45.000000	39.269412	-45.000000	-41.733812	-2969.758679	-1547.406796	143.050880	180.000000	728.668432	48.942195	23.302366	14.566086	19.160631	41.379108	-42.505079	-45.000000	-37.629349	4039.919584	-2811.222802	26.381985	-26.119869	728.621473	14.148008	8.851399	-18.733226	
2.8100	-40.603799	-9.502705	12.776487	-132.777094	790.249585	5.466438	6.787278	-45.000000	39.260244	-45.000000	-41.993309	-2970.024593	-1547.140398	142.969034	180.000000	728.822154	48.811271	23.366131	14.497328	19.039387	41.325330	-42.428032	-45.000000	-37.647593	4040.153982	-2811.062860	26.359837	-26.192014	728.728158	13.445505	8.815428	-18.778553	
2.8200	-40.561751	-9.351726	12.792414	-135.493621	792.074222	5.398997	6.852736	-45.000000	39.254753	-45.000000	-42.255357	-2970.300641	-1546.871163	142.883520	180.000000	728.977464	48.688157	23.431685	14.422500	18.916967	41.264841	-42.352197	-45.000000	-37.672961	4040.392222	-2810.901218	26.335306	-26.279193	728.834008	12.709784	8.776887	-18.824289	
2.8300	-40.517792	-9.194923	12.810693	-138.262600	793.978240	5.337703	6.925203	-45.000000	39.245600	-45.000000	-42.536722	-2970.584707	-1546.597937	142.791663	180.000000	729.135443	48.574660	23.497709	14.338309	18.796649	41.188408	-42.276166	-45.000000	-37.716802	4040.631442	-2810.732270	26.313598	-26.368447	728.937745	11.938672	8.740709	-18.869725	
2.8400	-40.465088	-9.047295	12.841055	-141.080759	795.957918	5.282717	7.006457	-45.000000	39.241664	-45.000000	-42.852176	-2970.877768	-1546.312378	142.693948	180.000000	729.295030	48.474390	23.563385	14.245677	18.677823	41.092192	-42.200584	-45.000000	-37.808964	4040.869319	-2810.553452	26.290830	-26.465705	729.043556	11.129345	8.698591	-18.913000	
2.8500	-40.408278	-8.897469	12.873905	-143.944336	798.008020	5.234317	7.090686	-45.000000	39.232128	-45.000000	-43.188646	-2971.172262	-1546.018862	142.593328	180.000000	729.451363	48.389005	23.625889	14.138621	18.557602	40.985448	-42.122251	-45.000000	-37.920548	4041.105982	-2810.367984	26.269959	-26.564789	729.145838	10.287049	8.662335	-18.955232	
2.8600	-40.336796	-8.775111	12.942274	-146.849226	800.121646	5.192938	7.198710	-45.000000	39.219793	-45.000000	-43.610906	-2971.479371	-1545.704509	142.477860	180.000000	729.612169	48.319832	23.690128	14.026536	18.457960	40.854668	-42.044839	-45.000000	-38.123006	4041.328566	-2810.159701	26.246474	-26.635949	729.248418	9.401297	8.612554	-18.992029	
2.8700	-40.267176	-8.629394	12.983729	-149.790718	802.290025	5.159157	7.301418	-45.000000	39.217792	-45.000000	-44.004475	-2971.783565	-1545.394837	142.372152	180.000000	729.770986	48.268156	23.754986	13.906512	18.352213	40.746457	-41.966452	-45.000000	-38.287625	4041.555077	-2809.960596	26.212390	-26.746682	729.349742	8.507777	8.558144	-19.029743	
2.8800	-40.195556	-8.467629	13.004888	-152.764193	804.502749	5.133666	7.398540	-45.000000	39.223094	-45.000000	-44.375935	-2972.083560	-1545.088044	142.275882	180.000000	729.922375	48.234244	23.818948	13.779006	18.238819	40.656645	-41.882449	-45.000000	-38.429527	4041.783878	-2809.767388	26.172209	-26.892063	729.453249	7.620418	8.501918	-19.070697	
2.8900	-40.136993	-8.243895	12.945702	-155.764605	806.747645	5.117163	7.459979	-45.000000	39.257264	-45.000000	-44.607705	-2972.365491	-1544.809741	142.216085	180.000000	730.060378	48.218813	23.881959	13.644378	18.090917	40.630315	-41.793636	-45.000000	-38.431836	4042.031133	-2809.610362	26.115190	-27.136307	729.558239	6.785260	8.449251	-19.121809	
2.9000	-40.078693	-7.998310	12.855618	-158.787159	809.011374	5.110244	7.511225	-45.000000	39.309528	-45.000000	-44.791592	-2972.641447	-1544.544926	142.173203	180.000000	730.192409	48.219686	23.947013	13.508707	17.932715	40.626001	-41.699938	-45.000000	-38.401831	4042.279154	-2809.459924	26.049886	-27.413540	729.668610	5.998035	8.392866	-19.180315	
2.9100	-40.023624	-7.722746	12.729330	-161.826413	811.279450	5.113269	7.553980	-45.000000	39.375935	-45.000000	-44.901002	-2972.918287	-1544.306578	142.149111	180.000000	730.316072	48.234845	24.013378	13.369967	17.764725	40.626624	-41.608589	-45.000000	-38.332384	4042.525543	-2809.323982	25.977855	-27.711022	729.774693	5.268414	8.331635	-19.243983	
